<?xml version="1.0" encoding="utf-8"?>
<!-- Generator: Adobe Illustrator 22.0.0, SVG Export Plug-In . SVG Version: 6.00 Build 0)  -->
<svg version="1.1" id="Слой_1" xmlns="http://www.w3.org/2000/svg" xmlns:xlink="http://www.w3.org/1999/xlink" x="0px" y="0px"
	 viewBox="0 0 30 45" style="enable-background:new 0 0 30 45;" xml:space="preserve">
<style type="text/css">
	.st0{fill:#FE7800;}
	.st1{fill:#FED500;}
	.st2{fill:#FFFFFF;}
</style>
<g>
	<path class="st0" d="M16.4,44.8c1-0.1,6-0.6,9.6-4c0.3-0.3,1.6-1.6,2.6-3.7c2.7-5.5,0.5-11.3,0.4-11.3c-0.1,0,0.8,7.7,0.9,7.7
		c0,0,0.1-3.3-0.9-7.7c-0.7-3.3-1.2-3.3-1.3-5.1c-0.4-5.1,3-8.3,2.2-8.8c-0.5-0.3-2.4,1.6-6.1,5.5c-0.6,0.6-1.7,1.8-1.3,2.9
		c0.1,0.4,0.4,0.7,0.4,0.7c0,0-3.1-3-4.4-5.8c-3.3-7,3.3-14.2,1.8-15c-1.2-0.6-6.5,3.8-9.2,9.1c-0.7,1.4-2.4,4.8-2.2,9.1
		c0.1,3.2,1.2,5.8,0.9,5.8C9.6,24.4,9,23.6,7.2,20c-2.9-5.6-3.4-7-3.9-6.9c-0.9,0.1-0.7,3-2.2,11c-0.5,2.7-0.8,3.9-0.9,6.2
		C0.1,33.1,0,35,1,37.2c1.5,3.1,4.2,4.9,5.3,5.5C10.7,45.2,15.3,44.9,16.4,44.8z"/>
	<path class="st1" d="M14.2,45.2c6.3,0.2,10.7-5,11.4-9.1c0.7-4-1.8-8-4.4-10.2c-1.1-0.9-1.8-1.2-3.1-2.6c-2.7-3-2.7-5.5-3.5-5.5
		c-1.3,0-2.5,6.4-2.2,8.4c0,0,0.1,0.8,0,1.8c0,0.4-0.2,1.4-0.4,1.5c-0.5,0-0.8-3.2-1.8-3.3c-0.7,0-0.9,1.8-3.1,4.4
		c-0.7,0.9-0.8,0.8-1.3,1.5c-1.4,1.8-1.9,4-1.8,5.5C4.4,41.2,9,45,14.2,45.2z"/>
	<path class="st2" d="M16.4,44.8c3.8-1,4.7-4.7,4.8-5.5c0.5-2-0.2-3.5-1.3-6.2c-1.4-3.4-3.9-7.2-4.8-6.9c-1.2,0.3,0.9,6.8-0.9,7.3
		c-0.7,0.2-1.8-0.5-2.2-0.7c-1.2-0.7-1.2-1.4-1.8-1.5c-1.1-0.1-3,3-3.1,6.2C7.1,39.1,7,41.2,8.9,43C10.6,44.6,13.6,45.6,16.4,44.8z"
		/>
</g>
</svg>
