<?xml version="1.0" encoding="utf-8"?>
<!-- Generator: Adobe Illustrator 22.0.0, SVG Export Plug-In . SVG Version: 6.00 Build 0)  -->
<svg version="1.1" id="Слой_1" xmlns="http://www.w3.org/2000/svg" xmlns:xlink="http://www.w3.org/1999/xlink" x="0px" y="0px"
	 viewBox="0 0 321.5 59" style="enable-background:new 0 0 321.5 59;" xml:space="preserve">
    <defs>
        <style type="text/css">
            .st0{fill:#ffffff;}
            .st1{font-family: TrebuchetMS;}
            .st2{font-size:58.0422px;}
        </style>
    </defs>
<g>
	<g>
		<ellipse class="st0" cx="15.1" cy="34.1" rx="15" ry="15.1"/>
		<ellipse class="st0" cx="42.3" cy="13.7" rx="13.2" ry="13.3"/>
		<ellipse class="st0" cx="72.9" cy="36.2" rx="13.2" ry="13.3"/>
		<path class="st0" d="M14.4,18.6"/>
		<path class="st0" d="M15.1,18.6c0,0,2.8-10.5,14.6-8.4s25.5,1,25.5,1s13.4-2.5,14.8,11.9C71.5,37.6,66.9,48,66.9,48
			s-7.3,5.6-12.8-2.1c0,0-7.7,9.8-15.3,0c0,0-7.5,9.7-14.9,0.3"/>
	</g>
	<text transform="matrix(0.9938 0 0 1 93.8291 47.1808)" class="st0 st1 st2">Linghetti</text>
</g>
</svg>