<?xml version="1.0" encoding="utf-8"?>
<!-- Generator: Adobe Illustrator 22.0.0, SVG Export Plug-In . SVG Version: 6.00 Build 0)  -->
<svg version="1.1" id="Слой_1" xmlns="http://www.w3.org/2000/svg" xmlns:xlink="http://www.w3.org/1999/xlink" x="0px" y="0px"
	 viewBox="0 0 26 26" style="enable-background:new 0 0 26 26;" xml:space="preserve">
<style type="text/css">
	.st0{fill:none;stroke:#265E89;stroke-width:1.8514;stroke-miterlimit:10;}
</style>
<g>
	<path class="st0" d="M12.1,1.9c0.1-0.1,1.3-1.1,2.7-0.7c0.5,0.2,0.8,0.5,1,0.7c0,0,0,1.4,0,1.4c0,0,0,2,0,2c0,5,0,10,0,15
		c0,0,0,2.7,0,2.7c0,0.4,0,0.8,0,1.3c-0.1,0.1-0.7,0.9-1.8,0.9c-0.1,0-1.2,0-1.8-0.9c-1.8-1.9-3.7-3.7-5.5-5.6V7.5
		C8.4,5.6,10.2,3.7,12.1,1.9z"/>
	<path class="st0" d="M6.5,7.5c-0.5,0-1.1,0-1.8,0c-1.1-0.1-1.6-0.2-2.2,0C2.1,7.6,1.5,7.8,1,8.4c0,0,0,1.6,0,1.6c0,2.1,0,4.2,0,6.3
		c0,0,0,1.4,0,1.4c0.3,0.4,0.8,0.7,1.4,0.9c0.7,0.2,1.1,0.1,2.3,0c0.5,0,1.1,0,1.8,0"/>
	<path class="st0" d="M19.5,19.5"/>
	<path class="st0" d="M19.5,9.3c0.2,0.1,1.8,1.4,1.8,3.7c0,0.2,0,2.3-1.8,3.7"/>
	<path class="st0" d="M22.2,5.6C22.8,6.3,25,8.9,25,13s-2.2,6.8-2.8,7.4"/>
</g>
</svg>
